# xmcd
#
# Track frame offsets: 
#        150
#        10595
#        19935
#        32471
#        41405
#        52497
#        64070
#        76927
#        90451
#        101970
#        113355
#        125962
#        134647
#        151545
#        162522
#        174102
#
# Disc length: 2504 seconds
#
# Revision: 4
# Processed by: cddbd v1.5.2PL0 Copyright (c) Steve Scherf et al.
# Submitted via: ExactAudioCopy v1.0b1
#
DISCID=c609c610
DTITLE=Willie Nelson - Blame It On The Times
DYEAR=1999
DGENRE=Country
TTITLE0=Blame It On The Times
TTITLE1=Healing Hands Of Time
TTITLE2=Any Old Arms Won't You
TTITLE3=Right From Wrong
TTITLE4=I Hope So
TTITLE5=End Of An Understanding
TTITLE6=A Moment Isn't Very Long
TTITLE7=Last Letter
TTITLE8=I Don't Feel Anything
TTITLE9=Touch Me
TTITLE10=She's Not For You
TTITLE11=Why Are You Pickin' On Me
TTITLE12=I Let My Mind Wonder
TTITLE13=Go Away
TTITLE14=Pages
TTITLE15=Will You Remember Me
EXTD=YEAR: 1999
EXTT0=
EXTT1=
EXTT2=
EXTT3=
EXTT4=
EXTT5=
EXTT6=
EXTT7=
EXTT8=
EXTT9=
EXTT10=
EXTT11=
EXTT12=
EXTT13=
EXTT14=
EXTT15=
PLAYORDER=
